{
  "accessors": [
    {
      "bufferView": 2,
      "componentType": 5126,
      "count": 60180,
      "max": [
        2.1216657161712646,
        0.16789470613002777,
        2.414045572280884
      ],
      "min": [
        -2.1216657161712646,
        -0.16789470613002777,
        -2.4372572898864746
      ],
      "type": "VEC3"
    },
    {
      "bufferView": 2,
      "byteOffset": 722160,
      "componentType": 5126,
      "count": 60180,
      "max": [
        1.0,
        1.0,
        1.0
      ],
      "min": [
        -1.0,
        -1.0,
        -1.0
      ],
      "type": "VEC3"
    },
    {
      "bufferView": 3,
      "componentType": 5126,
      "count": 60180,
      "max": [
        1.0,
        1.0,
        1.0,
        1.0
      ],
      "min": [
        -1.0,
        -1.0,
        -1.0,
        1.0
      ],
      "type": "VEC4"
    },
    {
      "bufferView": 1,
      "componentType": 5126,
      "count": 60180,
      "max": [
        0.9997351169586182,
        0.9174426794052124
      ],
      "min": [
        0.0002650731476023793,
        0.0002650731476023793
      ],
      "type": "VEC2"
    },
    {
      "bufferView": 1,
      "byteOffset": 481440,
      "componentType": 5126,
      "count": 60180,
      "max": [
        0.9997351169586182,
        0.9174426794052124
      ],
      "min": [
        0.0002650731476023793,
        0.0002650731476023793
      ],
      "type": "VEC2"
    },
    {
      "bufferView": 1,
      "byteOffset": 962880,
      "componentType": 5126,
      "count": 60180,
      "max": [
        0.9997351169586182,
        0.9174426794052124
      ],
      "min": [
        0.0002650731476023793,
        0.0002650731476023793
      ],
      "type": "VEC2"
    },
    {
      "bufferView": 1,
      "byteOffset": 1444320,
      "componentType": 5126,
      "count": 60180,
      "max": [
        0.9997351169586182,
        0.9174426794052124
      ],
      "min": [
        0.0002650731476023793,
        0.0002650731476023793
      ],
      "type": "VEC2"
    },
    {
      "bufferView": 0,
      "componentType": 5125,
      "count": 342528,
      "type": "SCALAR"
    }
  ],
  "asset": {
    "extras": {
      "author": "Incg5764 (https://sketchfab.com/incg5764)",
      "license": "CC-BY-4.0 (http://creativecommons.org/licenses/by/4.0/)",
      "source": "https://sketchfab.com/3d-models/heavy-rusty-anchor-3f95a9814ab14cf78e4999e990ac82ff",
      "title": "Heavy Rusty Anchor"
    },
    "generator": "Sketchfab-14.22.0",
    "version": "2.0"
  },
  "bufferViews": [
    {
      "buffer": 0,
      "byteLength": 1370112,
      "name": "floatBufferViews",
      "target": 34963
    },
    {
      "buffer": 0,
      "byteLength": 1925760,
      "byteOffset": 1370112,
      "byteStride": 8,
      "name": "floatBufferViews",
      "target": 34962
    },
    {
      "buffer": 0,
      "byteLength": 1444320,
      "byteOffset": 3295872,
      "byteStride": 12,
      "name": "floatBufferViews",
      "target": 34962
    },
    {
      "buffer": 0,
      "byteLength": 962880,
      "byteOffset": 4740192,
      "byteStride": 16,
      "name": "floatBufferViews",
      "target": 34962
    }
  ],
  "buffers": [
    {
      "byteLength": 5703072,
      "uri": "scene.bin"
    }
  ],
  "images": [
    {
      "uri": "textures/Material_baseColor.jpeg"
    },
    {
      "uri": "textures/Material_metallicRoughness.png"
    },
    {
      "uri": "textures/Material_normal.png"
    }
  ],
  "materials": [
    {
      "doubleSided": true,
      "name": "Material",
      "normalTexture": {
        "index": 2
      },
      "pbrMetallicRoughness": {
        "baseColorTexture": {
          "index": 0
        },
        "metallicRoughnessTexture": {
          "index": 1
        }
      }
    }
  ],
  "meshes": [
    {
      "name": "Object_0",
      "primitives": [
        {
          "attributes": {
            "NORMAL": 1,
            "POSITION": 0,
            "TANGENT": 2,
            "TEXCOORD_0": 3,
            "TEXCOORD_1": 4,
            "TEXCOORD_2": 5,
            "TEXCOORD_3": 6
          },
          "indices": 7,
          "material": 0,
          "mode": 4
        }
      ]
    }
  ],
  "nodes": [
    {
      "children": [
        1
      ],
      "matrix": [
        0.9256435036659241,
        -0.37839677929878235,
        -1.6728769021118913e-16,
        0.0,
        0.37629520893096924,
        0.9205025434494019,
        -0.10524740070104578,
        0.0,
        0.039825279265642166,
        0.09742157161235787,
        0.9944460988044739,
        0.0,
        0.0,
        0.0,
        0.0,
        1.0
      ],
      "name": "Sketchfab_model"
    },
    {
      "children": [
        2
      ],
      "name": "root"
    },
    {
      "children": [
        3
      ],
      "matrix": [
        1.0,
        0.0,
        0.0,
        0.0,
        0.0,
        2.220446049250313e-16,
        1.0,
        0.0,
        0.0,
        -1.0,
        2.220446049250313e-16,
        0.0,
        0.0,
        0.0,
        0.0,
        1.0
      ],
      "name": "GLTF_SceneRootNode"
    },
    {
      "children": [
        4
      ],
      "name": "Plane_0"
    },
    {
      "mesh": 0,
      "name": "Object_4"
    }
  ],
  "samplers": [
    {
      "magFilter": 9729,
      "minFilter": 9987,
      "wrapS": 10497,
      "wrapT": 10497
    }
  ],
  "scene": 0,
  "scenes": [
    {
      "name": "Sketchfab_Scene",
      "nodes": [
        0
      ]
    }
  ],
  "textures": [
    {
      "sampler": 0,
      "source": 0
    },
    {
      "sampler": 0,
      "source": 1
    },
    {
      "sampler": 0,
      "source": 2
    }
  ]
}
